<svg xmlns="http://www.w3.org/2000/svg" viewBox="0 0 46.56 46.56"><defs><style>.cls-1{fill:#f88b00;}.cls-2{fill:#fff;}</style></defs><title>avatar-pregunta</title><g id="Capa_2" data-name="Capa 2"><g id="Capa_1-2" data-name="Capa 1"><circle class="cls-1" cx="23.28" cy="23.28" r="23.28"/><path class="cls-2" d="M23.86,23.19A10.72,10.72,0,0,0,13.15,33.91a.82.82,0,0,0,1.64,0,9.07,9.07,0,0,1,18.14,0,.83.83,0,0,0,1.65,0A10.73,10.73,0,0,0,23.86,23.19Z"/><path class="cls-2" d="M23.86,10a5.77,5.77,0,1,0,5.78,5.77A5.77,5.77,0,0,0,23.86,10Zm0,9.89A4.13,4.13,0,1,1,28,15.77,4.13,4.13,0,0,1,23.86,19.89Z"/></g></g></svg>