<svg xmlns="http://www.w3.org/2000/svg" viewBox="0 0 20.32 20.32"><defs><style>.cls-1{fill:none;stroke:#00bfaf;stroke-miterlimit:10;}.cls-2{fill:#00bfaf;}</style></defs><title>avatar-tiny</title><g id="Capa_2" data-name="Capa 2"><g id="Capa_1-2" data-name="Capa 1"><circle class="cls-1" cx="10.16" cy="10.16" r="9.66"/><path class="cls-2" d="M10.45,10.12A5.36,5.36,0,0,0,5.1,15.47a.41.41,0,1,0,.82,0,4.54,4.54,0,0,1,9.07,0,.41.41,0,1,0,.82,0A5.36,5.36,0,0,0,10.45,10.12Z"/><path class="cls-2" d="M10.45,3.52a2.89,2.89,0,1,0,2.89,2.89A2.89,2.89,0,0,0,10.45,3.52Zm0,5a2.06,2.06,0,1,1,2.06-2.06A2.07,2.07,0,0,1,10.45,8.47Z"/></g></g></svg>