<svg xmlns="http://www.w3.org/2000/svg" viewBox="0 0 25.42 25.42"><defs><style>.cls-1{fill:#8b97a5;}.cls-2{fill:none;}</style></defs><title>footer-insta_1</title><g id="Capa_2" data-name="Capa 2"><g id="Capa_1-2" data-name="Capa 1"><path class="cls-1" d="M16.65,2.19H8.76A6.57,6.57,0,0,0,2.19,8.76v7.89a6.57,6.57,0,0,0,6.57,6.58h7.89a6.57,6.57,0,0,0,6.58-6.58V8.76A6.57,6.57,0,0,0,16.65,2.19Zm4.61,14.46a4.62,4.62,0,0,1-4.61,4.61H8.76a4.62,4.62,0,0,1-4.6-4.61V8.76a4.61,4.61,0,0,1,4.6-4.6h7.89a4.62,4.62,0,0,1,4.61,4.6Z"/><path class="cls-1" d="M12.71,7.45A5.26,5.26,0,1,0,18,12.71,5.27,5.27,0,0,0,12.71,7.45Zm0,8.55A3.29,3.29,0,1,1,16,12.71,3.3,3.3,0,0,1,12.71,16Z"/><circle class="cls-1" cx="18.36" cy="7.06" r="0.7"/><rect class="cls-2" width="25.42" height="25.42"/></g></g></svg>