<svg xmlns="http://www.w3.org/2000/svg" viewBox="0 0 25.42 25.42"><defs><style>.cls-1{fill:#8b97a5;}.cls-2{fill:none;}</style></defs><title>footer-twit_1</title><g id="Capa_2" data-name="Capa 2"><g id="Capa_1-2" data-name="Capa 1"><path class="cls-1" d="M23.45,6.05a9.47,9.47,0,0,1-2.54.7,4.44,4.44,0,0,0,1.94-2.44,8.74,8.74,0,0,1-2.79,1.07,4.4,4.4,0,0,0-7.62,3,4.65,4.65,0,0,0,.1,1,12.45,12.45,0,0,1-9.07-4.6,4.38,4.38,0,0,0,1.35,5.88,4.35,4.35,0,0,1-2-.54v0A4.41,4.41,0,0,0,6.36,14.5a4.34,4.34,0,0,1-1.16.15,3.83,3.83,0,0,1-.83-.08,4.44,4.44,0,0,0,4.11,3.07A8.84,8.84,0,0,1,3,19.52,9.16,9.16,0,0,1,2,19.46a12.37,12.37,0,0,0,6.76,2A12.44,12.44,0,0,0,21.26,8.91c0-.2,0-.39,0-.57A8.75,8.75,0,0,0,23.45,6.05Z"/><rect class="cls-2" width="25.42" height="25.42"/></g></g></svg>