<svg xmlns="http://www.w3.org/2000/svg" viewBox="0 0 32.27 32.27"><defs><style>.cls-1,.cls-2{fill:#fff;}.cls-1{opacity:0.2;}</style></defs><title>heart-off</title><g id="Capa_2" data-name="Capa 2"><g id="Capa_1-2" data-name="Capa 1"><circle class="cls-1" cx="16.14" cy="16.14" r="16.14"/><path class="cls-2" d="M22.78,10.61a3.92,3.92,0,0,0-6.26.45,5.55,5.55,0,0,0-.38.63q-.16-.3-.39-.63a3.92,3.92,0,0,0-6.26-.45,4.75,4.75,0,0,0-1.14,3.14A5.77,5.77,0,0,0,10,17.54a35.65,35.65,0,0,0,4,3.72l1.89,1.62,0,0a.46.46,0,0,0,.3.11.5.5,0,0,0,.3-.11l0,0c.66-.58,1.28-1.11,1.88-1.62a35.85,35.85,0,0,0,4-3.72,5.81,5.81,0,0,0,1.59-3.79A4.75,4.75,0,0,0,22.78,10.61Zm-5,10L16.14,22l-1.62-1.39c-3.16-2.69-5.25-4.47-5.25-6.81a3.82,3.82,0,0,1,.9-2.53,3,3,0,0,1,4.83.37A5,5,0,0,1,15.7,13a.46.46,0,0,0,.87,0,5.27,5.27,0,0,1,.7-1.39,3,3,0,0,1,4.83-.37A3.82,3.82,0,0,1,23,13.75C23,16.09,20.92,17.87,17.75,20.56Z"/></g></g></svg>