<svg xmlns="http://www.w3.org/2000/svg" viewBox="0 0 21.82 30.31"><defs><style>.cls-1{fill:#00bfaf;}</style></defs><title>ico-selecc</title><g id="Capa_2" data-name="Capa 2"><g id="Capa_1-2" data-name="Capa 1"><path class="cls-1" d="M18.38,0H7.52l0,0h0l0,0h0a.09.09,0,0,0-.06,0h0l0,0h0l0,0h0l0,0h0l-7,7a0,0,0,0,1,0,0l0,0s0,0,0,0l0,0h0l0,.06h0s0,0,0,0H0l0,0v.07s0,0,0,.07V26.87a3.44,3.44,0,0,0,3.44,3.44H18.38a3.44,3.44,0,0,0,3.44-3.44V3.44A3.44,3.44,0,0,0,18.38,0ZM7,2.35V4.9A2.07,2.07,0,0,1,4.9,7H2.36ZM20.45,26.87a2.07,2.07,0,0,1-2.07,2.06H3.44a2.06,2.06,0,0,1-2.06-2.06V8.34H4.9A3.44,3.44,0,0,0,8.34,4.9V1.38h10a2.07,2.07,0,0,1,2.07,2.06V26.87Z"/><path class="cls-1" d="M15.75,14.82l-4.4-3.69h0l0,0,0,0,0,0H11.2l0,0h-.5l0,0s0,0,0,0h0l0,0,0,0,0,0s0,0,0,0L6.1,14.82a.69.69,0,1,0,.89,1l3.26-2.73V23.21a.69.69,0,1,0,1.38,0V13.14l3.26,2.73a.69.69,0,0,0,1-.09A.7.7,0,0,0,15.75,14.82Z"/></g></g></svg>