<svg xmlns="http://www.w3.org/2000/svg" viewBox="0 0 35.42 35.42"><defs><style>.cls-1{fill:#00bfaf;}.cls-2{fill:#fff;}</style></defs><title>ico-peso</title><g id="Capa_2" data-name="Capa 2"><g id="Capa_1-2" data-name="Capa 1"><circle class="cls-1" cx="17.71" cy="17.71" r="17.71"/><path class="cls-2" d="M17.71,23.11h-.06a2,2,0,0,1-2-2,1.38,1.38,0,0,0-1.38-1.38A1.33,1.33,0,0,0,13,21.05v0a4.69,4.69,0,0,0,3.46,4.57v.85a1.38,1.38,0,1,0,2.76,0v-.84a4.91,4.91,0,0,0,3.34-4.58,4.81,4.81,0,0,0-4.81-4.78,2,2,0,0,1-2-2,2,2,0,0,1,4,0v0a1.38,1.38,0,0,0,1.39,1.38h0a1.42,1.42,0,0,0,1.43-1.38,4.89,4.89,0,0,0-3.34-4.58V9a1.38,1.38,0,1,0-2.76,0v.69A4.71,4.71,0,0,0,13,14.29a4.76,4.76,0,0,0,4.75,4.78h0a2,2,0,0,1,0,4Z"/></g></g></svg>