<svg xmlns="http://www.w3.org/2000/svg" viewBox="0 0 33.74 33.74"><defs><style>.cls-1{fill:#737373;}.cls-2{fill:#fefefe;}</style></defs><title>ico-instagram_1</title><g id="Capa_2" data-name="Capa 2"><g id="Capa_1-2" data-name="Capa 1"><circle class="cls-1" cx="16.87" cy="16.87" r="16.87"/><path class="cls-2" d="M20.81,6.35H12.92a6.57,6.57,0,0,0-6.57,6.57v7.89a6.58,6.58,0,0,0,6.57,6.58h7.89a6.59,6.59,0,0,0,6.58-6.58V12.92A6.58,6.58,0,0,0,20.81,6.35Zm4.61,14.46a4.62,4.62,0,0,1-4.61,4.61H12.92a4.62,4.62,0,0,1-4.6-4.61V12.92a4.61,4.61,0,0,1,4.6-4.6h7.89a4.62,4.62,0,0,1,4.61,4.6Z"/><path class="cls-2" d="M16.87,11.61a5.26,5.26,0,1,0,5.26,5.26A5.25,5.25,0,0,0,16.87,11.61Zm0,8.55a3.29,3.29,0,1,1,3.29-3.29A3.3,3.3,0,0,1,16.87,20.16Z"/><circle class="cls-2" cx="22.52" cy="11.21" r="0.7"/></g></g></svg>