<svg xmlns="http://www.w3.org/2000/svg" viewBox="0 0 24.4 24.12"><defs><style>.cls-1{fill:#00bfaf;}</style></defs><title>ico-trueke-coins</title><g id="Capa_2" data-name="Capa 2"><g id="Capa_1-2" data-name="Capa 1"><path class="cls-1" d="M18.47,8.21a1.87,1.87,0,0,0-.22-.39h1.24a2.2,2.2,0,1,0,0-4.39H15.68A2.2,2.2,0,0,0,13.87,0H2.19a2.2,2.2,0,0,0,0,4.39H6a2.17,2.17,0,0,0-.39,1.23A2.2,2.2,0,0,0,6,6.86H4.77A2.19,2.19,0,0,0,3.4,10.77a2.19,2.19,0,0,0,0,3.43,2.2,2.2,0,0,0,0,3.44,2.19,2.19,0,0,0,1.37,3.9h5.61A8.1,8.1,0,1,0,18.47,8.21Zm1-3.82a1.24,1.24,0,1,1,0,2.47H7.82a1.24,1.24,0,1,1,0-2.47Zm-17.3-1A1.24,1.24,0,0,1,2.19,1H13.87a1.24,1.24,0,1,1,0,2.48ZM4.77,7.82H16.44a1.26,1.26,0,0,1,.55.12q-.34,0-.69,0a8,8,0,0,0-5.73,2.39H4.77a1.24,1.24,0,1,1,0-2.48Zm0,3.43h5a8,8,0,0,0-1.22,2.48H4.77a1.24,1.24,0,0,1,0-2.48Zm0,3.43H8.31A8.45,8.45,0,0,0,8.2,16a8.62,8.62,0,0,0,.08,1.14H4.77a1.24,1.24,0,1,1,0-2.48Zm0,5.91a1.24,1.24,0,0,1,0-2.48h3.7a8,8,0,0,0,1.15,2.48ZM16.3,23.17A7.15,7.15,0,1,1,23.45,16,7.16,7.16,0,0,1,16.3,23.17Z"/></g></g></svg>