<svg xmlns="http://www.w3.org/2000/svg" viewBox="0 0 30.54 30.54"><defs><style>.cls-1{fill:#fff;}.cls-2{fill:#00bfaf;}</style></defs><title>ico-truek</title><g id="Capa_2" data-name="Capa 2"><g id="Capa_1-2" data-name="Capa 1"><circle class="cls-1" cx="15.27" cy="15.27" r="15.27"/><path class="cls-2" d="M21.11,16.23a5.33,5.33,0,0,1-5.37,4.41l1.22-1a.37.37,0,0,0,.05-.52A.37.37,0,0,0,16.5,19h0l-1.88,1.57a.37.37,0,0,0,0,.51l0,0h0L16.14,23a.37.37,0,0,0,.57-.47l-1-1.16a6.08,6.08,0,0,0,3.91-10.83.38.38,0,0,0-.46,0l-.06.07a.36.36,0,0,0,.06.51A5.36,5.36,0,0,1,21.11,16.23Z"/><path class="cls-2" d="M11.89,20a.38.38,0,0,0,.52-.06.37.37,0,0,0-.06-.52A5.33,5.33,0,0,1,15.84,9.9L14.66,11a.37.37,0,0,0,0,.52.38.38,0,0,0,.53,0L17,9.87a.37.37,0,0,0,0-.52L15.3,7.56a.37.37,0,0,0-.49,0l0,0a.36.36,0,0,0,0,.52l1,1.09a6,6,0,0,0-3.59,1.1,2.27,2.27,0,0,0-.25.18,6,6,0,0,0-2.25,3.74A6.08,6.08,0,0,0,11.89,20Z"/></g></g></svg>