<svg xmlns="http://www.w3.org/2000/svg" viewBox="0 0 30.54 30.54"><defs><style>.cls-1{fill:#fff;}.cls-2{fill:#00bfaf;}</style></defs><title>ico-publicaciones</title><g id="Capa_2" data-name="Capa 2"><g id="Capa_1-2" data-name="Capa 1"><circle class="cls-1" cx="15.27" cy="15.27" r="15.27"/><path class="cls-2" d="M20.89,21.57H10.49A1.54,1.54,0,0,1,9,20V11.88a1.54,1.54,0,0,1,1.54-1.54h2a.42.42,0,0,1,.42.42.42.42,0,0,1-.42.42h-2a.7.7,0,0,0-.7.7V20a.7.7,0,0,0,.7.7h10.4a.71.71,0,0,0,.7-.7V15.25a.42.42,0,0,1,.84,0V20A1.54,1.54,0,0,1,20.89,21.57Z"/><path class="cls-2" d="M12.74,17.07h-.09a.42.42,0,0,1-.33-.4v-.85a5.48,5.48,0,0,1,5.48-5.47h.14V8.51a.41.41,0,0,1,.26-.39.4.4,0,0,1,.46.1L22.31,12a.41.41,0,0,1,0,.58l-3.65,3.8a.44.44,0,0,1-.46.1.43.43,0,0,1-.26-.4V14.27h-.67a4.61,4.61,0,0,0-4.15,2.56A.42.42,0,0,1,12.74,17.07Zm5.06-5.89a4.64,4.64,0,0,0-4.6,4.05,5.46,5.46,0,0,1,4.07-1.8h1.09a.42.42,0,0,1,.42.42v1.2l2.64-2.75L18.78,9.55v1.21a.42.42,0,0,1-.42.42Z"/></g></g></svg>