<svg xmlns="http://www.w3.org/2000/svg" viewBox="0 0 13.47 9.47"><defs><style>.cls-1{fill:#24282f;}</style></defs><title>ico-mail</title><g id="Capa_2" data-name="Capa 2"><g id="Capa_1-2" data-name="Capa 1"><path class="cls-1" d="M13.35.68,9.27,4.74,13.35,8.8a1.13,1.13,0,0,0,.12-.51V1.18A1.06,1.06,0,0,0,13.35.68Z"/><path class="cls-1" d="M12.29,0H1.18a1.06,1.06,0,0,0-.5.12L5.9,5.31a1.17,1.17,0,0,0,1.67,0L12.8.12A1.13,1.13,0,0,0,12.29,0Z"/><path class="cls-1" d="M.12.68a1.06,1.06,0,0,0-.12.5V8.29a1.13,1.13,0,0,0,.12.51L4.2,4.74Z"/><path class="cls-1" d="M8.71,5.29l-.58.58a2,2,0,0,1-2.79,0l-.58-.58L.68,9.35a1.06,1.06,0,0,0,.5.12H12.29a1.13,1.13,0,0,0,.51-.12Z"/></g></g></svg>