<svg xmlns="http://www.w3.org/2000/svg" viewBox="0 0 30.54 30.54"><defs><style>.cls-1{fill:#fff;}.cls-2{fill:#00bfaf;}</style></defs><title>ico-perfil</title><g id="Capa_2" data-name="Capa 2"><g id="Capa_1-2" data-name="Capa 1"><circle class="cls-1" cx="15.27" cy="15.27" r="15.27"/><path class="cls-2" d="M17.18,14.77a3.25,3.25,0,1,0-3.82,0,5.38,5.38,0,0,0-3.45,5,1.79,1.79,0,0,0,1.78,1.79h7.15a1.79,1.79,0,0,0,1.79-1.79A5.38,5.38,0,0,0,17.18,14.77ZM13,12.15a2.28,2.28,0,1,1,2.28,2.27A2.28,2.28,0,0,1,13,12.15Zm5.85,8.45H11.69a.82.82,0,0,1-.81-.82,4.39,4.39,0,0,1,8.78,0A.82.82,0,0,1,18.84,20.6Z"/></g></g></svg>