<svg xmlns="http://www.w3.org/2000/svg" viewBox="0 0 11.92 11.92"><defs><style>.cls-1{fill:#24282f;}</style></defs><title>ico-tel</title><g id="Capa_2" data-name="Capa 2"><g id="Capa_1-2" data-name="Capa 1"><path class="cls-1" d="M10,7.45a.92.92,0,0,0-1.39,0c-.33.33-.66.65-1,1a.19.19,0,0,1-.27.05c-.21-.11-.43-.21-.64-.33A10.15,10.15,0,0,1,4.3,5.92a5.31,5.31,0,0,1-.87-1.4.19.19,0,0,1,0-.26q.48-.46,1-1a.93.93,0,0,0,0-1.43L3.67,1.1,2.88.31a.92.92,0,0,0-1.39,0l-1,1A1.56,1.56,0,0,0,0,2.36a4.52,4.52,0,0,0,.35,2A11.86,11.86,0,0,0,2.47,7.83a13,13,0,0,0,4.32,3.39,6.26,6.26,0,0,0,2.4.69,1.7,1.7,0,0,0,1.5-.57c.28-.31.6-.6.9-.9a.94.94,0,0,0,0-1.42Z"/></g></g></svg>