<svg xmlns="http://www.w3.org/2000/svg" viewBox="0 0 36.46 36.46"><defs><style>.cls-1{fill:#00bfaf;}.cls-2{fill:#fff;}</style></defs><title>ico-avatar</title><g id="Capa_2" data-name="Capa 2"><g id="Capa_1-2" data-name="Capa 1"><circle class="cls-1" cx="18.23" cy="18.23" r="18.23"/><path class="cls-2" d="M18.69,18.16a8.4,8.4,0,0,0-8.4,8.39.65.65,0,1,0,1.3,0,7.1,7.1,0,1,1,14.2,0,.65.65,0,1,0,1.29,0A8.39,8.39,0,0,0,18.69,18.16Z"/><path class="cls-2" d="M18.69,7.83a4.52,4.52,0,1,0,4.52,4.52A4.53,4.53,0,0,0,18.69,7.83Zm0,7.75a3.23,3.23,0,1,1,3.23-3.23A3.23,3.23,0,0,1,18.69,15.58Z"/></g></g></svg>