<svg xmlns="http://www.w3.org/2000/svg" viewBox="0 0 24.54 22.62"><defs><style>.cls-1{fill:#00bfaf;}</style></defs><title>ico-recargar</title><g id="Capa_2" data-name="Capa 2"><g id="Capa_1-2" data-name="Capa 1"><path class="cls-1" d="M12.27,10.65a1.44,1.44,0,0,1-1.52-1.31A1.44,1.44,0,0,1,12.27,8a1.43,1.43,0,0,1,1.52,1.32.69.69,0,0,0,1.38,0A2.74,2.74,0,0,0,13,6.72V6.36a.69.69,0,0,0-1.38,0v.36a2.74,2.74,0,0,0-2.2,2.62A2.8,2.8,0,0,0,12.27,12a1.43,1.43,0,0,1,1.52,1.31,1.43,1.43,0,0,1-1.52,1.32,1.44,1.44,0,0,1-1.52-1.32.69.69,0,1,0-1.37,0A2.74,2.74,0,0,0,11.58,16v.3a.69.69,0,0,0,1.38,0V16a2.74,2.74,0,0,0,2.21-2.62A2.81,2.81,0,0,0,12.27,10.65Z"/><path class="cls-1" d="M15.26,20.82A9.77,9.77,0,0,1,3.59,15.77L6.27,16.9a.69.69,0,0,0,.89-.36.68.68,0,0,0-.34-.88h0L2.67,13.92a.67.67,0,0,0-.87.34l0,0v0h0L.05,18.41a.68.68,0,0,0,.36.88.67.67,0,0,0,.89-.36l1.07-2.56a11.13,11.13,0,0,0,13.29,5.74,11.13,11.13,0,0,0,7.62-8.45.68.68,0,0,0-.38-.75l-.15-.05a.68.68,0,0,0-.8.54A9.76,9.76,0,0,1,15.26,20.82Z"/><path class="cls-1" d="M1.42,9a.67.67,0,0,0,1.32.26A9.78,9.78,0,0,1,21.16,6.94l-2.79-1a.67.67,0,1,0-.45,1.27l4.21,1.52A.68.68,0,0,0,23,8.32L24.5,4.11a.67.67,0,0,0-.35-.84l0,0a.69.69,0,0,0-.87.41l-.92,2.56a11,11,0,0,0-4.8-4.92L17,1A11.12,11.12,0,0,0,1.42,9Z"/></g></g></svg>