<svg xmlns="http://www.w3.org/2000/svg" viewBox="0 0 33.73 33.73"><defs><style>.cls-1{fill:#737373;}.cls-2{fill:#fefefe;}</style></defs><title>ico-pinterest-grey_1</title><g id="Capa_2" data-name="Capa 2"><g id="Capa_1-2" data-name="Capa 1"><circle class="cls-1" cx="16.87" cy="16.87" r="16.87"/><path class="cls-2" d="M17.15,6.08c-7.48,0-11.45,4.8-11.45,10,0,2.42,1.35,5.45,3.52,6.41.33.14.51.08.58-.22l.49-1.88a.49.49,0,0,0-.12-.48,6.19,6.19,0,0,1-1.29-3.77c0-3.64,2.9-7.18,7.83-7.18C21,9,24,11.75,24,15.71c0,4.48-2.37,7.58-5.45,7.58a2.44,2.44,0,0,1-2.57-3c.48-2,1.44-4.08,1.44-5.5a2.11,2.11,0,0,0-2.19-2.33c-1.74,0-3.14,1.72-3.14,4a5.83,5.83,0,0,0,.51,2.46l-2,8.22a18.18,18.18,0,0,0,.13,6.05.17.17,0,0,0,.32.08A21.3,21.3,0,0,0,13.81,28C14,27.19,14.89,24,14.89,24a4.71,4.71,0,0,0,4,1.9c5.23,0,9-4.59,9-10.29,0-5.47-4.7-9.56-10.72-9.56"/></g></g></svg>