<svg xmlns="http://www.w3.org/2000/svg" viewBox="0 0 30.54 30.54"><defs><style>.cls-1{fill:#fff;}.cls-2{fill:#00bfaf;}</style></defs><title>ico-pass</title><g id="Capa_2" data-name="Capa 2"><g id="Capa_1-2" data-name="Capa 1"><circle class="cls-1" cx="15.27" cy="15.27" r="15.27"/><path class="cls-2" d="M15.27,9.36a3.36,3.36,0,0,0-3.37,3.36v1.62h-1a.58.58,0,0,0-.58.57v5.7a.58.58,0,0,0,.58.57h8.82a.57.57,0,0,0,.57-.57V14.92a.56.56,0,0,0-.57-.57H18.63V12.73A3.37,3.37,0,0,0,15.27,9.36ZM13,12.73a2.23,2.23,0,1,1,4.45,0v1.62H13V12.73ZM19.11,20H11.43V15.48h7.68Z"/></g></g></svg>