<svg xmlns="http://www.w3.org/2000/svg" viewBox="0 0 45.76 45.76"><defs><style>.cls-1{fill:#8b97a5;}.cls-2{fill:#fff;}</style></defs><title>ico-trueke-secc</title><g id="Capa_2" data-name="Capa 2"><g id="Capa_1-2" data-name="Capa 1"><circle class="cls-1" cx="22.88" cy="22.88" r="22.88"/><path class="cls-2" d="M31.94,24.15a8.91,8.91,0,0,1-9,7.36l2-1.71a.62.62,0,0,0-.78-1h0L21.1,31.47a.62.62,0,0,0-.09.85l0,0v0h0l2.59,3.09a.62.62,0,0,0,.87.07.61.61,0,0,0,.07-.86L23,32.74a10.13,10.13,0,0,0,6.51-18.07.62.62,0,0,0-.76,0l-.11.11a.62.62,0,0,0,.1.86A8.9,8.9,0,0,1,31.94,24.15Z"/><path class="cls-2" d="M16.56,30.42a.61.61,0,1,0,.76-1,8.92,8.92,0,0,1-3.22-8.52,8.92,8.92,0,0,1,9-7.35l-2,1.84a.61.61,0,0,0,0,.87.62.62,0,0,0,.87,0l3-2.78a.63.63,0,0,0,0-.88l-2.78-3a.61.61,0,0,0-.83-.07l0,0a.63.63,0,0,0,0,.88L23,12.35a10,10,0,0,0-6,1.84l-.42.3a10.14,10.14,0,0,0-.07,15.93Z"/></g></g></svg>