<svg xmlns="http://www.w3.org/2000/svg" viewBox="0 0 33.74 33.74"><defs><style>.cls-1{fill:#03a9f4;}.cls-2{fill:#fefefe;}</style></defs><title>ico-twitter</title><g id="Capa_2" data-name="Capa 2"><g id="Capa_1-2" data-name="Capa 1"><circle class="cls-1" cx="16.87" cy="16.87" r="16.87"/><path class="cls-2" d="M27.53,11a9.47,9.47,0,0,1-2.54.7A4.44,4.44,0,0,0,26.93,9.3a8.88,8.88,0,0,1-2.8,1.07,4.39,4.39,0,0,0-7.61,3,4.65,4.65,0,0,0,.1,1,12.49,12.49,0,0,1-9.08-4.6A4.4,4.4,0,0,0,8.9,15.66a4.35,4.35,0,0,1-2-.54v.05a4.41,4.41,0,0,0,3.52,4.32,4.21,4.21,0,0,1-1.15.15,3.77,3.77,0,0,1-.83-.08,4.44,4.44,0,0,0,4.11,3.07A8.86,8.86,0,0,1,7.1,24.51a9,9,0,0,1-1-.06,12.36,12.36,0,0,0,6.75,2A12.44,12.44,0,0,0,25.33,13.89c0-.19,0-.38,0-.56A8.91,8.91,0,0,0,27.53,11Z"/></g></g></svg>