<svg xmlns="http://www.w3.org/2000/svg" viewBox="0 0 17.15 16.04"><defs><style>.cls-1{fill:#fff;}</style></defs><title>ico-rechazado</title><g id="Capa_2" data-name="Capa 2"><g id="Capa_1-2" data-name="Capa 1"><path class="cls-1" d="M17.15,6.29a1.75,1.75,0,0,0-.44-1.15,1.71,1.71,0,0,0-.82-2.79A1.91,1.91,0,0,0,16,1.71,1.72,1.72,0,0,0,14.29,0H9.5a6.47,6.47,0,0,0-2,.32L5.55,1A1.72,1.72,0,0,0,4,0H.57A.58.58,0,0,0,0,.57V10.86a.57.57,0,0,0,.57.57H4a1.72,1.72,0,0,0,1.6-1.08c1.43.35,2.82,2.27,3.25,4l.31,1.24a.58.58,0,0,0,.56.43h.57a2.29,2.29,0,0,0,2.29-2.28v-.57a11.08,11.08,0,0,0-.47-2.9h3.32a1.72,1.72,0,0,0,1.72-1.72,1.74,1.74,0,0,0-.44-1.14A1.7,1.7,0,0,0,17.15,6.29ZM4.57,9.72a.57.57,0,0,1-.57.57H1.14V1.14H4a.57.57,0,0,1,.57.57Zm9.15-2.29a.57.57,0,0,0,.57.57h1.14a.58.58,0,1,1,0,1.15H9.72a.56.56,0,0,0-.57.57.57.57,0,0,0,.57.57h1.17a9.26,9.26,0,0,1,.54,2.9v.57a1.14,1.14,0,0,1-1.14,1.14h-.13l-.2-.81a8.31,8.31,0,0,0-1.68-3.22A4.61,4.61,0,0,0,5.72,9.2V2.13l2.16-.72A5,5,0,0,1,9.5,1.14h4.79a.58.58,0,0,1,0,1.15.57.57,0,0,0-.57.57.58.58,0,0,0,.57.57h1.14A.58.58,0,0,1,16,4a.57.57,0,0,1-.58.57H14.29a.58.58,0,0,0,0,1.15h1.14a.57.57,0,0,1,.58.57.58.58,0,0,1-.58.57H14.29A.58.58,0,0,0,13.72,7.43Z"/><circle class="cls-1" cx="2.86" cy="2.86" r="0.57"/></g></g></svg>