<svg xmlns="http://www.w3.org/2000/svg" viewBox="0 0 16.24 23.09"><defs><style>.cls-1{fill:#00bfaf;}</style></defs><title>ico-ubicacion</title><g id="Capa_2" data-name="Capa 2"><g id="Capa_1-2" data-name="Capa 1"><path class="cls-1" d="M8.12,0A8.12,8.12,0,0,0,1.21,12.39L7.66,22.77a.67.67,0,0,0,.57.32h0a.68.68,0,0,0,.57-.33l6.28-10.48A8.12,8.12,0,0,0,8.12,0Zm5.81,11.58L8.22,21.11,2.36,11.67a6.72,6.72,0,0,1-1-3.55,6.78,6.78,0,1,1,12.59,3.46Z"/><path class="cls-1" d="M8.12,4.06a4.06,4.06,0,1,0,4.06,4.06A4.06,4.06,0,0,0,8.12,4.06Zm0,6.77a2.72,2.72,0,1,1,2.71-2.71A2.72,2.72,0,0,1,8.12,10.83Z"/></g></g></svg>