<svg xmlns="http://www.w3.org/2000/svg" viewBox="0 0 17.15 16.04"><defs><style>.cls-1{fill:#fff;}</style></defs><title>ico-aprobadoico-aprobado</title><g id="Capa_2" data-name="Capa 2"><g id="Capa_1-2" data-name="Capa 1"><path class="cls-1" d="M16.71,8.61a1.7,1.7,0,0,0,.44-1.14,1.72,1.72,0,0,0-1.72-1.72H12.11a11,11,0,0,0,.47-2.89V2.29A2.3,2.3,0,0,0,10.29,0H9.72a.59.59,0,0,0-.56.43L8.85,1.68C8.42,3.42,7,5.35,5.6,5.7A1.71,1.71,0,0,0,4,4.61H.57A.58.58,0,0,0,0,5.18V15.47A.57.57,0,0,0,.57,16H4a1.73,1.73,0,0,0,1.55-1l2,.65a6.19,6.19,0,0,0,2,.32h4.79A1.72,1.72,0,0,0,16,14.33a1.86,1.86,0,0,0-.12-.63A1.73,1.73,0,0,0,17.15,12a1.7,1.7,0,0,0-.44-1.14,1.72,1.72,0,0,0,.44-1.14A1.75,1.75,0,0,0,16.71,8.61ZM4.57,14.33A.57.57,0,0,1,4,14.9H1.14V5.75H4a.57.57,0,0,1,.57.58Zm9.72-5.15h1.14a.58.58,0,1,1,0,1.15H14.29a.57.57,0,0,0,0,1.14h1.14A.58.58,0,0,1,16,12a.57.57,0,0,1-.58.57H14.29a.58.58,0,0,0,0,1.15.56.56,0,0,1,.57.57.57.57,0,0,1-.57.57H9.5a5.23,5.23,0,0,1-1.62-.26l-2.16-.72V6.84A4.59,4.59,0,0,0,8.28,5.18,8.38,8.38,0,0,0,10,2l.2-.82h.13a1.15,1.15,0,0,1,1.14,1.15v.57a9.15,9.15,0,0,1-.54,2.89H9.72a.58.58,0,0,0,0,1.15h5.71a.57.57,0,0,1,.58.57.58.58,0,0,1-.58.57H14.29a.58.58,0,0,0-.57.57A.57.57,0,0,0,14.29,9.18Z"/><circle class="cls-1" cx="2.86" cy="13.19" r="0.57"/></g></g></svg>