<svg xmlns="http://www.w3.org/2000/svg" viewBox="0 0 30.54 30.54"><defs><style>.cls-1{fill:#fff;}.cls-2{fill:#00bfaf;}</style></defs><title>ico-recar</title><g id="Capa_2" data-name="Capa 2"><g id="Capa_1-2" data-name="Capa 1"><circle class="cls-1" cx="15.27" cy="15.27" r="15.27"/><path class="cls-2" d="M15.27,14.86a.82.82,0,1,1,.93-.81.43.43,0,0,0,.86,0,1.71,1.71,0,0,0-1.37-1.62v-.22a.43.43,0,0,0-.85,0v.22a1.7,1.7,0,0,0-1.36,1.62,1.73,1.73,0,0,0,1.79,1.66.82.82,0,1,1-.94.81.43.43,0,0,0-.85,0,1.69,1.69,0,0,0,1.36,1.62v.19a.43.43,0,0,0,.85,0v-.19a1.7,1.7,0,0,0,1.37-1.62A1.74,1.74,0,0,0,15.27,14.86Z"/><path class="cls-2" d="M17.11,21.15A6,6,0,0,1,9.9,18l1.66.69A.42.42,0,0,0,11.9,18h0L9.33,16.88a.41.41,0,0,0-.54.21v0h0L7.71,19.65a.42.42,0,0,0,.78.33l.66-1.58a6.76,6.76,0,0,0,3,3.06,6.83,6.83,0,0,0,5.24.49,6.91,6.91,0,0,0,4.71-5.23.41.41,0,0,0-.24-.46.32.32,0,0,0-.09,0,.41.41,0,0,0-.49.33A6.06,6.06,0,0,1,17.11,21.15Z"/><path class="cls-2" d="M8.56,13.82a.42.42,0,0,0,.33.49A.43.43,0,0,0,9.38,14a6,6,0,0,1,11.38-1.41L19,12a.42.42,0,0,0-.54.25.42.42,0,0,0,.26.54l2.6.93a.41.41,0,0,0,.53-.25l.94-2.6a.42.42,0,0,0-.22-.52l0,0a.43.43,0,0,0-.53.26l-.57,1.58a6.84,6.84,0,0,0-3-3l-.31-.15a6.8,6.8,0,0,0-4.92-.33A6.87,6.87,0,0,0,8.56,13.82Z"/></g></g></svg>