<svg xmlns="http://www.w3.org/2000/svg" viewBox="0 0 91.08 39.33"><defs><style>.cls-1{fill:#00bfaf;}.cls-2{fill:#fff;}</style></defs><title>logo-trueke</title><g id="Capa_2" data-name="Capa 2"><g id="Capa_1-2" data-name="Capa 1"><path class="cls-1" d="M70.32,29.74a15.28,15.28,0,0,1-21.26.82,2,2,0,0,0-2.87.16,1.77,1.77,0,0,0-.32.5,2,2,0,0,0-.36,1.14v5a2,2,0,1,0,4,0v-1.4a19.29,19.29,0,0,0,23.72-3.36,2,2,0,0,0-3-2.81Z" transform="translate(-0.46)"/><path class="cls-1" d="M49.06,8A15.26,15.26,0,0,1,59.27,4.07a15.1,15.1,0,0,1,11,4.74A2,2,0,0,0,73.78,7V2.25a2,2,0,1,0-4,0V3.1A19.12,19.12,0,0,0,59.27,0,19.33,19.33,0,0,0,46.34,5a2,2,0,0,0,2.72,3Z" transform="translate(-0.46)"/><path class="cls-2" d="M3.77,15.67H.46V12.9h9.92v2.77H7.08V25.4H3.77Z" transform="translate(-0.46)"/><path class="cls-2" d="M11.65,12.9h4.73c2.69,0,5,.92,5,4s-2.31,4.26-5,4.26H15v4.2H11.65Zm4.5,5.69c1.31,0,2-.58,2-1.65s-.69-1.43-2-1.43H15v3.08Zm-.37,1.75L18,18.15l4.06,7.25H18.38Z" transform="translate(-0.46)"/><path class="cls-2" d="M23.11,19.36V12.9h3.3v6.84c0,2.23.58,3,1.89,3s1.92-.81,1.92-3V12.9h3.19v6.46c0,4.27-1.61,6.27-5.11,6.27S23.11,23.63,23.11,19.36Z" transform="translate(-0.46)"/><path class="cls-2" d="M35.52,12.9H43.6v2.77H38.83v2h4.08V20.4H38.83v2.23h5V25.4H35.52Z" transform="translate(-0.46)"/><path class="cls-2" d="M45.64,12.9h3.3v4.65H49l3.15-4.65h3.62L52.06,18l4.46,7.43H52.9l-2.76-4.81-1.2,1.69V25.4h-3.3Z" transform="translate(-0.46)"/><path class="cls-2" d="M57.13,12.9h8.08v2.77H60.44v2h4.07V20.4H60.44v2.23h5V25.4H57.13Z" transform="translate(-0.46)"/><path class="cls-2" d="M67,23.63a1.93,1.93,0,1,1,1.93,2A1.92,1.92,0,0,1,67,23.63Z" transform="translate(-0.46)"/><path class="cls-2" d="M72.28,19.24c0-4.19,2.88-6.57,6-6.57a5.52,5.52,0,0,1,3.88,1.65l-1.73,2.12a3,3,0,0,0-2.08-.93c-1.46,0-2.73,1.35-2.73,3.62s1.08,3.65,2.7,3.65a3.08,3.08,0,0,0,2.26-1.08l1.73,2.08a5.25,5.25,0,0,1-4.11,1.85C75.05,25.63,72.28,23.51,72.28,19.24Z" transform="translate(-0.46)"/><path class="cls-2" d="M83.51,12.9h3.3v9.73h4.73V25.4h-8Z" transform="translate(-0.46)"/></g></g></svg>