<svg xmlns="http://www.w3.org/2000/svg" viewBox="0 0 91.08 39.33"><defs><style>.cls-1{fill:#00bfaf;}.cls-2{fill:#fff;}</style></defs><title>logo-trueke_1</title><g id="Capa_2" data-name="Capa 2"><g id="Capa_1-2" data-name="Capa 1"><path class="cls-1" d="M69.86,29.74a15.28,15.28,0,0,1-21.26.82,2,2,0,0,0-2.87.16,2.06,2.06,0,0,0-.33.5,2,2,0,0,0-.35,1.14v5a2,2,0,1,0,4,0v-1.4a19.29,19.29,0,0,0,23.72-3.36,2,2,0,0,0-3-2.81Z"/><path class="cls-1" d="M48.6,8a15.27,15.27,0,0,1,21.26.83A2,2,0,0,0,73.32,7V2.25a2,2,0,1,0-4,0V3.1A19.32,19.32,0,0,0,45.88,5,2,2,0,0,0,48.6,8Z"/><path class="cls-2" d="M3.31,15.67H0V12.9H9.92v2.77H6.61V25.4H3.31Z"/><path class="cls-2" d="M11.19,12.9h4.73c2.69,0,5,.92,5,4s-2.31,4.26-5,4.26H14.5v4.2H11.19Zm4.5,5.69c1.3,0,2-.58,2-1.65s-.7-1.43-2-1.43H14.5v3.08Zm-.37,1.75,2.23-2.19,4.06,7.25H17.92Z"/><path class="cls-2" d="M22.65,19.36V12.9H26v6.84c0,2.23.58,3,1.89,3s1.92-.81,1.92-3V12.9H33v6.46c0,4.27-1.61,6.27-5.11,6.27S22.65,23.63,22.65,19.36Z"/><path class="cls-2" d="M35.06,12.9h8.08v2.77H38.37v2h4.08V20.4H38.37v2.23h5V25.4H35.06Z"/><path class="cls-2" d="M45.18,12.9h3.3v4.65h.08l3.15-4.65h3.62L51.6,18l4.46,7.43H52.44l-2.77-4.81-1.19,1.69V25.4h-3.3Z"/><path class="cls-2" d="M56.67,12.9h8.08v2.77H60v2h4.07V20.4H60v2.23h5V25.4H56.67Z"/><path class="cls-2" d="M66.55,23.63a1.93,1.93,0,1,1,1.92,2A1.92,1.92,0,0,1,66.55,23.63Z"/><path class="cls-2" d="M71.82,19.24c0-4.19,2.88-6.57,6-6.57a5.54,5.54,0,0,1,3.88,1.65L80,16.44a3.06,3.06,0,0,0-2.08-.93c-1.46,0-2.73,1.35-2.73,3.62s1.08,3.65,2.69,3.65a3.1,3.1,0,0,0,2.27-1.08l1.73,2.08a5.26,5.26,0,0,1-4.11,1.85C74.59,25.63,71.82,23.51,71.82,19.24Z"/><path class="cls-2" d="M83,12.9h3.31v9.73h4.73V25.4H83Z"/></g></g></svg>