<svg xmlns="http://www.w3.org/2000/svg" viewBox="0 0 52.41 29.07"><defs><style>.cls-1{fill:#fff;}</style></defs><title>ico1-hogar-muebles-blanco</title><g id="Capa_2" data-name="Capa 2"><g id="Capa_1-2" data-name="Capa 1"><path class="cls-1" d="M49.38,29.07H3.05a.75.75,0,0,1-.75-.75V13.61a.75.75,0,0,1,1.5,0v14H48.63v-14a.75.75,0,0,1,1.5,0V28.32A.75.75,0,0,1,49.38,29.07Z"/><path class="cls-1" d="M49.38,14.36a.74.74,0,0,1-.28-1.44,3,3,0,0,0-2.38-5.51,3,3,0,0,0-1.64,1.76.77.77,0,0,1-.95.49.75.75,0,0,1-.48-.95,4.5,4.5,0,1,1,6,5.58.77.77,0,0,1-.26.07Z"/><path class="cls-1" d="M3.05,14.36a.67.67,0,0,1-.28-.06,4.5,4.5,0,1,1,6-5.57.75.75,0,1,1-1.43.45,3,3,0,1,0-4,3.75.75.75,0,0,1,.43,1,.77.77,0,0,1-.71.48Z"/><path class="cls-1" d="M26.22,20.21H8.07a.75.75,0,0,1-.75-.75V3.88A3.89,3.89,0,0,1,11.22,0H23.08A3.89,3.89,0,0,1,27,3.88h0V19.46A.76.76,0,0,1,26.22,20.21Zm-17.4-1.5H25.47V3.88A2.39,2.39,0,0,0,23.08,1.5H11.22A2.39,2.39,0,0,0,8.84,3.88h0Z"/><path class="cls-1" d="M44.37,20.21H26.22a.75.75,0,0,1-.75-.75V3.88A3.88,3.88,0,0,1,29.35,0H41.21a3.88,3.88,0,0,1,3.88,3.88V19.46A.74.74,0,0,1,44.37,20.21ZM27,18.71H43.62V3.88A2.39,2.39,0,0,0,41.23,1.5H29.35A2.38,2.38,0,0,0,27,3.88h0Z"/><path class="cls-1" d="M44.37,15.15H8.07a.75.75,0,0,1,0-1.5h36.3a.75.75,0,0,1,0,1.5Z"/></g></g></svg>